{"title":"Source Code (2011) BRRip.AC3.XViD-EP1C","uid":6463088,"size":1486813845,"categoryP":"video","categoryS":"movies","magnet":"?xt=urn:btih:14cd946e6f67988454bffca58522ebc6c55d6863&amp;dn=Source+Code+%282011%29+BRRip.AC3.XViD-EP1C&amp;tr=udp%3A%2F%2Ftracker.openbittorrent.com%3A80&amp;tr=udp%3A%2F%2Fopen.demonii.com%3A1337&amp;tr=udp%3A%2F%2Ftracker.coppersurfer.tk%3A6969&amp;tr=udp%3A%2F%2Fexodus.desync.com%3A6969","seeders":0,"leechers":1,"uploader":"rjaa","files":-1,"time":1307856645,"description":"\n\n:::::::::::: EP1C Presents ::::::::::::\n\n::File:: Source.Code.2011.BRRip.KORSUB.AC3.XViD-EP1C\n\n::Video Source:: Source.Code.2011.KORSUB.HDRip.720P.x264-Death\n::Audio Source:: Source.Code.2011.KORSUB.HDRip.720P.x264-Death\n::Language:::::: English\n::IMDB:::::::::: http://www.imdb.com/title/tt0945513/\n\nAn action thriller centered on a soldier who wakes up in the body of an \nunknown man and discovers he's part of a mission to find the bomber of a \nChicago commuter train.\n\n::Specs:::::::::\n\nFormat : AVI\nFormat/Info : Audio Video Interleave\nFile size : 1.37 GiB\nDuration : 1h 32mn\nOverall bit rate : 2 111 Kbps\nWriting application : VirtualDubMod 1.5.10.2 (build 2540/release)\nWriting library : VirtualDubMod build 2540/release\n\nVideo\nID : 0\nFormat : MPEG-4 Visual\nFormat profile : Advanced Simple@L5\nFormat settings, BVOP : Yes\nFormat settings, QPel : No\nFormat settings, GMC : No warppoints\nFormat settings, Matrix : Default (MPEG)\nMuxing mode : Packed bitstream\nCodec ID : XVID\nCodec ID/Hint : XviD\nDuration : 1h 32mn\nBit rate : 1 907 Kbps\nWidth : 720 pixels\nHeight : 400 pixels\nDisplay aspect ratio : 16:9\nFrame rate : 29.970 fps\nColor space : YUV\nChroma subsampling : 4:2:0\nBit depth : 8 bits\nScan type : Progressive\nBits/(Pixel*Frame) : 0.221\nStream size : 1.24 GiB (90%)\nWriting library : XviD 58\n\nAudio\nID : 1\nFormat : AC-3\nFormat/Info : Audio Coding 3\nMode extension : CM (complete main)\nCodec ID : 2000\nDuration : 1h 32mn\nBit rate mode : Constant\nBit rate : 192 Kbps\nChannel(s) : 2 channels\nChannel positions : Front: L R\nSampling rate : 48.0 KHz\nBit depth : 16 bits\nStream size : 128 MiB (9%)\nAlignment : Split accross interleaves\nInterleave, duration : 33 ms (1.00 video frame)\nInterleave, preload duration : 500 ms\n\n::NOTES::::::::: \nPresenting Source Code BRRip. This release has hardcoded Korean Subs. \nEnjoy. //EP1C\n\n:: Got something we might be interested in? contact us: &lt;a class=&quot;__cf_email__&quot; href=&quot;/cdn-cgi/l/email-protection&quot; data-cfemail=&quot;ef8a9f868caf879a9c87828e8683c1828a&quot;&gt;[email&amp;#160;protected]&lt;/a&gt;&lt;script cf-hash='f9e31' type=&quot;text/javascript&quot;&gt;\n/* &lt;![CDATA[ */!function(){try{var t=&quot;currentScript&quot;in document?document.currentScript:function(){for(var t=document.getElementsByTagName(&quot;script&quot;),e=t.length;e--;)if(t[e].getAttribute(&quot;cf-hash&quot;))return t[e]}();if(t&amp;&amp;t.previousSibling){var e,r,n,i,c=t.previousSibling,a=c.getAttribute(&quot;data-cfemail&quot;);if(a){for(e=&quot;&quot;,r=parseInt(a.substr(0,2),16),n=2;a.length-n;n+=2)i=parseInt(a.substr(n,2),16)^r,e+=String.fromCharCode(i);e=document.createTextNode(e),c.parentNode.replaceChild(e,c)}}}catch(u){}}();/* ]]&gt; */&lt;/script&gt; ::\n\n:::::::::::::::::::::::::::::::: RESPECT :::::::::::::::::::::::::::::::::\nIMAGiNE, Rx, FLAWL3SS, ViSiON, HiVE, bobwhite, Vik, OneTwo &amp; All Our Friends!\n\n:::::::::::::::: We Are :::::::::::::::: \n:::::: Surpassing the usual or ordinary ::::::\n:::::::::::::::::: Heroic and impressive in quality :::::::::::::::::: \n:::::::::::::::::::::::::::::::: EP1C ::::::::::::::::::::::::::::::::\n\nscreenshots:\n &lt;a href=&quot;\nhttp://www.grinshare.com/img/5NEIO3.png&quot; rel=&quot;nofollow&quot; target=&quot;_NEW&quot;&gt;\nhttp://www.grinshare.com/img/5NEIO3.png&lt;/a&gt;\n &lt;a href=&quot;\nhttp://www.grinshare.com/img/SALSS5.png&quot; rel=&quot;nofollow&quot; target=&quot;_NEW&quot;&gt;\nhttp://www.grinshare.com/img/SALSS5.png&lt;/a&gt;\n &lt;a href=&quot;\nhttp://www.grinshare.com/img/X04CSK.png&quot; rel=&quot;nofollow&quot; target=&quot;_NEW&quot;&gt;\nhttp://www.grinshare.com/img/X04CSK.png&lt;/a&gt;\n &lt;a href=&quot;\nhttp://www.grinshare.com/img/Y6Q2MQ.png&quot; rel=&quot;nofollow&quot; target=&quot;_NEW&quot;&gt;\nhttp://www.grinshare.com/img/Y6Q2MQ.png&lt;/a&gt;","torrent":{"xt":"urn:btih:14cd946e6f67988454bffca58522ebc6c55d6863","amp;dn":"Source+Code+%282011%29+BRRip.AC3.XViD-EP1C","amp;tr":["udp%3A%2F%2Ftracker.openbittorrent.com%3A80","udp%3A%2F%2Fopen.demonii.com%3A1337","udp%3A%2F%2Ftracker.coppersurfer.tk%3A6969","udp%3A%2F%2Fexodus.desync.com%3A6969"],"infoHash":"14cd946e6f67988454bffca58522ebc6c55d6863","infoHashBuffer":{"type":"Buffer","data":[20,205,148,110,111,103,152,132,84,191,252,165,133,34,235,198,197,93,104,99]},"announce":[],"urlList":[]}}